<svg width="24" height="24" viewBox="0 0 24 24" fill="none" xmlns="http://www.w3.org/2000/svg">
<g id="arrow_back">
<mask id="mask0_182_270" style="mask-type:alpha" maskUnits="userSpaceOnUse" x="0" y="0" width="24" height="24">
<rect id="Bounding box" width="24" height="24" fill="#D9D9D9"/>
</mask>
<g mask="url(#mask0_182_270)">
<path id="arrow_back_2" d="M10.5 19.6999L3.75 12.9499C3.61667 12.8165 3.521 12.6705 3.463 12.5119C3.40433 12.3539 3.375 12.1915 3.375 12.0249C3.375 11.8582 3.40433 11.6955 3.463 11.5369C3.521 11.3789 3.61667 11.2332 3.75 11.0999L10.525 4.32487C10.7917 4.05821 11.1043 3.92887 11.463 3.93687C11.821 3.94554 12.1333 4.08321 12.4 4.34987C12.6667 4.61654 12.8 4.93321 12.8 5.29987C12.8 5.66654 12.6667 5.98321 12.4 6.24987L7.95 10.6999H18.75C19.1167 10.6999 19.4293 10.8289 19.688 11.0869C19.946 11.3455 20.075 11.6582 20.075 12.0249C20.075 12.3915 19.946 12.7039 19.688 12.9619C19.4293 13.2205 19.1167 13.3499 18.75 13.3499H7.95L12.425 17.8249C12.6917 18.0915 12.8207 18.4042 12.812 18.7629C12.804 19.1209 12.6667 19.4332 12.4 19.6999C12.1333 19.9665 11.8167 20.0999 11.45 20.0999C11.0833 20.0999 10.7667 19.9665 10.5 19.6999Z" fill="#535AF1"/>
</g>
</g>
</svg>
