<svg width="24" height="24" viewBox="0 0 24 24" fill="none" xmlns="http://www.w3.org/2000/svg">
<mask id="mask0_609_17304" style="mask-type:alpha" maskUnits="userSpaceOnUse" x="0" y="0" width="24" height="24">
<rect width="24" height="24" fill="#D9D9D9"/>
</mask>
<g mask="url(#mask0_609_17304)">
<path d="M2.55005 21.0651C2.13338 21.2317 1.73755 21.1951 1.36255 20.9551C0.987549 20.7159 0.800049 20.3672 0.800049 19.9088V15.2526C0.800049 14.9609 0.883382 14.7005 1.05005 14.4713C1.21672 14.2422 1.44588 14.0963 1.73755 14.0338L10.8 11.7838L1.73755 9.53382C1.44588 9.47132 1.21672 9.32549 1.05005 9.09632C0.883382 8.86716 0.800049 8.60674 0.800049 8.31507V3.65882C0.800049 3.20049 0.987549 2.85132 1.36255 2.61132C1.73755 2.37216 2.13338 2.3359 2.55005 2.50257L21.8 10.6276C22.3209 10.8567 22.5813 11.2422 22.5813 11.7838C22.5813 12.3255 22.3209 12.7109 21.8 12.9401L2.55005 21.0651Z" fill="white"/>
</g>
</svg>
