<svg width="216" height="33" viewBox="0 0 216 33" fill="none" xmlns="http://www.w3.org/2000/svg">
<mask id="mask0_244_1435" style="mask-type:alpha" maskUnits="userSpaceOnUse" x="10" y="4" width="24" height="25">
<rect x="10" y="4.5" width="24" height="24" fill="#D9D9D9"/>
</mask>
<g mask="url(#mask0_244_1435)">
<path d="M22 21.5C22.2833 21.5 22.521 21.404 22.713 21.212C22.9043 21.0207 23 20.7833 23 20.5V17.5H26.025C26.3083 17.5 26.5417 17.404 26.725 17.212C26.9083 17.0207 27 16.7833 27 16.5C27 16.2167 26.904 15.979 26.712 15.787C26.5207 15.5957 26.2833 15.5 26 15.5H23V12.475C23 12.1917 22.9043 11.9583 22.713 11.775C22.521 11.5917 22.2833 11.5 22 11.5C21.7167 11.5 21.4793 11.5957 21.288 11.787C21.096 11.979 21 12.2167 21 12.5V15.5H17.975C17.6917 15.5 17.4583 15.5957 17.275 15.787C17.0917 15.979 17 16.2167 17 16.5C17 16.7833 17.0957 17.0207 17.287 17.212C17.479 17.404 17.7167 17.5 18 17.5H21V20.525C21 20.8083 21.096 21.0417 21.288 21.225C21.4793 21.4083 21.7167 21.5 22 21.5ZM22 26.5C20.6167 26.5 19.3167 26.2373 18.1 25.712C16.8833 25.1873 15.825 24.475 14.925 23.575C14.025 22.675 13.3127 21.6167 12.788 20.4C12.2627 19.1833 12 17.8833 12 16.5C12 15.1167 12.2627 13.8167 12.788 12.6C13.3127 11.3833 14.025 10.325 14.925 9.425C15.825 8.525 16.8833 7.81233 18.1 7.287C19.3167 6.76233 20.6167 6.5 22 6.5C23.3833 6.5 24.6833 6.76233 25.9 7.287C27.1167 7.81233 28.175 8.525 29.075 9.425C29.975 10.325 30.6873 11.3833 31.212 12.6C31.7373 13.8167 32 15.1167 32 16.5C32 17.8833 31.7373 19.1833 31.212 20.4C30.6873 21.6167 29.975 22.675 29.075 23.575C28.175 24.475 27.1167 25.1873 25.9 25.712C24.6833 26.2373 23.3833 26.5 22 26.5ZM22 24.5C24.2167 24.5 26.1043 23.721 27.663 22.163C29.221 20.6043 30 18.7167 30 16.5C30 14.2833 29.221 12.3957 27.663 10.837C26.1043 9.279 24.2167 8.5 22 8.5C19.7833 8.5 17.896 9.279 16.338 10.837C14.7793 12.3957 14 14.2833 14 16.5C14 18.7167 14.7793 20.6043 16.338 22.163C17.896 23.721 19.7833 24.5 22 24.5Z" fill="black"/>
</g>
<path d="M51.056 22.162C49.808 22.162 48.74 21.898 47.852 21.37C46.964 20.842 46.28 20.092 45.8 19.12C45.332 18.148 45.098 16.99 45.098 15.646C45.098 14.638 45.23 13.738 45.494 12.946C45.77 12.142 46.16 11.464 46.664 10.912C47.18 10.348 47.81 9.916 48.554 9.616C49.298 9.304 50.132 9.148 51.056 9.148C51.8 9.148 52.508 9.256 53.18 9.472C53.852 9.676 54.434 9.982 54.926 10.39C55.082 10.51 55.184 10.648 55.232 10.804C55.292 10.948 55.298 11.092 55.25 11.236C55.214 11.368 55.142 11.482 55.034 11.578C54.938 11.662 54.818 11.704 54.674 11.704C54.53 11.704 54.368 11.644 54.188 11.524C53.756 11.176 53.282 10.918 52.766 10.75C52.25 10.582 51.692 10.498 51.092 10.498C50.144 10.498 49.34 10.702 48.68 11.11C48.02 11.506 47.522 12.088 47.186 12.856C46.85 13.624 46.682 14.554 46.682 15.646C46.682 16.738 46.85 17.674 47.186 18.454C47.522 19.222 48.02 19.81 48.68 20.218C49.34 20.614 50.144 20.812 51.092 20.812C51.68 20.812 52.238 20.728 52.766 20.56C53.294 20.38 53.78 20.116 54.224 19.768C54.404 19.648 54.566 19.594 54.71 19.606C54.854 19.606 54.974 19.648 55.07 19.732C55.166 19.816 55.232 19.924 55.268 20.056C55.316 20.188 55.316 20.326 55.268 20.47C55.232 20.614 55.142 20.74 54.998 20.848C54.494 21.28 53.9 21.61 53.216 21.838C52.544 22.054 51.824 22.162 51.056 22.162ZM58.1993 22.126C57.9593 22.126 57.7793 22.06 57.6593 21.928C57.5393 21.796 57.4793 21.61 57.4793 21.37V9.922C57.4793 9.682 57.5393 9.502 57.6593 9.382C57.7793 9.25 57.9593 9.184 58.1993 9.184C58.4273 9.184 58.6073 9.25 58.7393 9.382C58.8713 9.502 58.9373 9.682 58.9373 9.922V15.196H58.7033C58.9553 14.5 59.3633 13.978 59.9273 13.63C60.5033 13.27 61.1633 13.09 61.9073 13.09C62.6033 13.09 63.1793 13.216 63.6353 13.468C64.1033 13.72 64.4513 14.104 64.6793 14.62C64.9073 15.124 65.0213 15.766 65.0213 16.546V21.37C65.0213 21.61 64.9553 21.796 64.8233 21.928C64.7033 22.06 64.5293 22.126 64.3013 22.126C64.0613 22.126 63.8753 22.06 63.7433 21.928C63.6233 21.796 63.5633 21.61 63.5633 21.37V16.636C63.5633 15.82 63.4013 15.226 63.0773 14.854C62.7653 14.47 62.2613 14.278 61.5653 14.278C60.7613 14.278 60.1193 14.53 59.6393 15.034C59.1713 15.526 58.9373 16.186 58.9373 17.014V21.37C58.9373 21.874 58.6913 22.126 58.1993 22.126ZM70.4638 22.162C69.8638 22.162 69.3238 22.048 68.8438 21.82C68.3758 21.58 68.0038 21.256 67.7278 20.848C67.4518 20.44 67.3138 19.984 67.3138 19.48C67.3138 18.832 67.4758 18.322 67.7998 17.95C68.1358 17.578 68.6818 17.314 69.4378 17.158C70.2058 17.002 71.2498 16.924 72.5698 16.924H73.3798V17.878H72.5878C71.6158 17.878 70.8478 17.926 70.2838 18.022C69.7318 18.106 69.3418 18.256 69.1138 18.472C68.8978 18.688 68.7898 18.994 68.7898 19.39C68.7898 19.882 68.9578 20.284 69.2938 20.596C69.6418 20.908 70.1098 21.064 70.6978 21.064C71.1778 21.064 71.5978 20.95 71.9578 20.722C72.3298 20.494 72.6178 20.182 72.8218 19.786C73.0378 19.39 73.1458 18.934 73.1458 18.418V16.366C73.1458 15.622 72.9958 15.088 72.6958 14.764C72.3958 14.428 71.9038 14.26 71.2198 14.26C70.7998 14.26 70.3798 14.314 69.9598 14.422C69.5398 14.53 69.0958 14.704 68.6278 14.944C68.4598 15.028 68.3158 15.058 68.1958 15.034C68.0758 14.998 67.9798 14.932 67.9078 14.836C67.8358 14.74 67.7938 14.632 67.7818 14.512C67.7698 14.38 67.7938 14.254 67.8538 14.134C67.9258 14.014 68.0338 13.918 68.1778 13.846C68.7058 13.582 69.2278 13.39 69.7438 13.27C70.2598 13.15 70.7518 13.09 71.2198 13.09C71.9758 13.09 72.5998 13.216 73.0918 13.468C73.5838 13.708 73.9498 14.08 74.1898 14.584C74.4298 15.076 74.5498 15.712 74.5498 16.492V21.37C74.5498 21.61 74.4898 21.796 74.3698 21.928C74.2618 22.06 74.0998 22.126 73.8838 22.126C73.6558 22.126 73.4818 22.06 73.3618 21.928C73.2418 21.796 73.1818 21.61 73.1818 21.37V19.966H73.3438C73.2478 20.422 73.0618 20.812 72.7858 21.136C72.5218 21.46 72.1918 21.712 71.7958 21.892C71.3998 22.072 70.9558 22.162 70.4638 22.162ZM77.9747 22.126C77.7347 22.126 77.5547 22.06 77.4347 21.928C77.3147 21.796 77.2547 21.61 77.2547 21.37V13.864C77.2547 13.624 77.3147 13.444 77.4347 13.324C77.5547 13.192 77.7287 13.126 77.9567 13.126C78.1847 13.126 78.3587 13.192 78.4787 13.324C78.6107 13.444 78.6767 13.624 78.6767 13.864V15.412L78.4787 15.196C78.7307 14.5 79.1387 13.978 79.7027 13.63C80.2787 13.27 80.9387 13.09 81.6827 13.09C82.3787 13.09 82.9547 13.216 83.4107 13.468C83.8787 13.72 84.2267 14.104 84.4547 14.62C84.6827 15.124 84.7967 15.766 84.7967 16.546V21.37C84.7967 21.61 84.7307 21.796 84.5987 21.928C84.4787 22.06 84.3047 22.126 84.0767 22.126C83.8367 22.126 83.6507 22.06 83.5187 21.928C83.3987 21.796 83.3387 21.61 83.3387 21.37V16.636C83.3387 15.82 83.1767 15.226 82.8527 14.854C82.5407 14.47 82.0367 14.278 81.3407 14.278C80.5367 14.278 79.8947 14.53 79.4147 15.034C78.9467 15.526 78.7127 16.186 78.7127 17.014V21.37C78.7127 21.874 78.4667 22.126 77.9747 22.126ZM88.2052 22.126C87.9652 22.126 87.7852 22.06 87.6652 21.928C87.5452 21.796 87.4852 21.61 87.4852 21.37V13.864C87.4852 13.624 87.5452 13.444 87.6652 13.324C87.7852 13.192 87.9592 13.126 88.1872 13.126C88.4152 13.126 88.5892 13.192 88.7092 13.324C88.8412 13.444 88.9072 13.624 88.9072 13.864V15.412L88.7092 15.196C88.9612 14.5 89.3692 13.978 89.9332 13.63C90.5092 13.27 91.1692 13.09 91.9132 13.09C92.6092 13.09 93.1852 13.216 93.6412 13.468C94.1092 13.72 94.4572 14.104 94.6852 14.62C94.9132 15.124 95.0272 15.766 95.0272 16.546V21.37C95.0272 21.61 94.9612 21.796 94.8292 21.928C94.7092 22.06 94.5352 22.126 94.3072 22.126C94.0672 22.126 93.8812 22.06 93.7492 21.928C93.6292 21.796 93.5692 21.61 93.5692 21.37V16.636C93.5692 15.82 93.4072 15.226 93.0832 14.854C92.7712 14.47 92.2672 14.278 91.5712 14.278C90.7672 14.278 90.1252 14.53 89.6452 15.034C89.1772 15.526 88.9432 16.186 88.9432 17.014V21.37C88.9432 21.874 88.6972 22.126 88.2052 22.126ZM101.658 22.162C100.734 22.162 99.9357 21.982 99.2637 21.622C98.6037 21.25 98.0877 20.728 97.7157 20.056C97.3557 19.384 97.1757 18.58 97.1757 17.644C97.1757 16.732 97.3557 15.94 97.7157 15.268C98.0757 14.584 98.5677 14.05 99.1917 13.666C99.8277 13.282 100.56 13.09 101.388 13.09C101.976 13.09 102.504 13.192 102.972 13.396C103.44 13.588 103.836 13.87 104.16 14.242C104.496 14.614 104.748 15.064 104.916 15.592C105.096 16.12 105.186 16.714 105.186 17.374C105.186 17.566 105.132 17.71 105.024 17.806C104.916 17.89 104.76 17.932 104.556 17.932H98.2917V16.978H104.214L103.926 17.212C103.926 16.564 103.83 16.018 103.638 15.574C103.446 15.118 103.164 14.77 102.792 14.53C102.432 14.29 101.976 14.17 101.424 14.17C100.812 14.17 100.29 14.314 99.8577 14.602C99.4377 14.878 99.1197 15.268 98.9037 15.772C98.6877 16.264 98.5797 16.84 98.5797 17.5V17.608C98.5797 18.712 98.8437 19.552 99.3717 20.128C99.9117 20.704 100.674 20.992 101.658 20.992C102.066 20.992 102.468 20.938 102.864 20.83C103.272 20.722 103.668 20.542 104.052 20.29C104.22 20.182 104.37 20.134 104.502 20.146C104.646 20.146 104.76 20.188 104.844 20.272C104.928 20.344 104.982 20.44 105.006 20.56C105.042 20.668 105.03 20.788 104.97 20.92C104.922 21.052 104.82 21.166 104.664 21.262C104.268 21.55 103.8 21.772 103.26 21.928C102.72 22.084 102.186 22.162 101.658 22.162ZM109.96 22.162C109.096 22.162 108.436 21.898 107.98 21.37C107.524 20.842 107.296 20.086 107.296 19.102V9.922C107.296 9.682 107.356 9.502 107.476 9.382C107.596 9.25 107.776 9.184 108.016 9.184C108.244 9.184 108.424 9.25 108.556 9.382C108.688 9.502 108.754 9.682 108.754 9.922V18.994C108.754 19.642 108.88 20.128 109.132 20.452C109.396 20.764 109.78 20.92 110.284 20.92C110.392 20.92 110.488 20.914 110.572 20.902C110.656 20.89 110.74 20.884 110.824 20.884C110.956 20.872 111.046 20.902 111.094 20.974C111.154 21.046 111.184 21.19 111.184 21.406C111.184 21.622 111.136 21.784 111.04 21.892C110.944 22 110.788 22.072 110.572 22.108C110.476 22.12 110.374 22.132 110.266 22.144C110.158 22.156 110.056 22.162 109.96 22.162ZM117.983 22.126C117.743 22.126 117.563 22.06 117.443 21.928C117.323 21.796 117.263 21.61 117.263 21.37V9.922C117.263 9.682 117.323 9.502 117.443 9.382C117.563 9.25 117.743 9.184 117.983 9.184C118.211 9.184 118.391 9.25 118.523 9.382C118.655 9.502 118.721 9.682 118.721 9.922V15.196H118.487C118.739 14.5 119.147 13.978 119.711 13.63C120.287 13.27 120.947 13.09 121.691 13.09C122.387 13.09 122.963 13.216 123.419 13.468C123.887 13.72 124.235 14.104 124.463 14.62C124.691 15.124 124.805 15.766 124.805 16.546V21.37C124.805 21.61 124.739 21.796 124.607 21.928C124.487 22.06 124.313 22.126 124.085 22.126C123.845 22.126 123.659 22.06 123.527 21.928C123.407 21.796 123.347 21.61 123.347 21.37V16.636C123.347 15.82 123.185 15.226 122.861 14.854C122.549 14.47 122.045 14.278 121.349 14.278C120.545 14.278 119.903 14.53 119.423 15.034C118.955 15.526 118.721 16.186 118.721 17.014V21.37C118.721 21.874 118.475 22.126 117.983 22.126ZM128.213 22.09C127.973 22.09 127.793 22.024 127.673 21.892C127.553 21.748 127.493 21.55 127.493 21.298V13.936C127.493 13.684 127.553 13.492 127.673 13.36C127.793 13.228 127.973 13.162 128.213 13.162C128.441 13.162 128.621 13.228 128.753 13.36C128.885 13.492 128.951 13.684 128.951 13.936V21.298C128.951 21.55 128.885 21.748 128.753 21.892C128.633 22.024 128.453 22.09 128.213 22.09ZM128.213 11.146C127.913 11.146 127.679 11.068 127.511 10.912C127.343 10.744 127.259 10.522 127.259 10.246C127.259 9.958 127.343 9.742 127.511 9.598C127.679 9.442 127.913 9.364 128.213 9.364C128.525 9.364 128.759 9.442 128.915 9.598C129.083 9.742 129.167 9.958 129.167 10.246C129.167 10.522 129.083 10.744 128.915 10.912C128.759 11.068 128.525 11.146 128.213 11.146ZM132.397 22.126C132.157 22.126 131.977 22.06 131.857 21.928C131.737 21.796 131.677 21.61 131.677 21.37V13.864C131.677 13.624 131.737 13.444 131.857 13.324C131.977 13.192 132.151 13.126 132.379 13.126C132.607 13.126 132.781 13.192 132.901 13.324C133.033 13.444 133.099 13.624 133.099 13.864V15.412L132.901 15.196C133.153 14.5 133.561 13.978 134.125 13.63C134.701 13.27 135.361 13.09 136.105 13.09C136.801 13.09 137.377 13.216 137.833 13.468C138.301 13.72 138.649 14.104 138.877 14.62C139.105 15.124 139.219 15.766 139.219 16.546V21.37C139.219 21.61 139.153 21.796 139.021 21.928C138.901 22.06 138.727 22.126 138.499 22.126C138.259 22.126 138.073 22.06 137.941 21.928C137.821 21.796 137.761 21.61 137.761 21.37V16.636C137.761 15.82 137.599 15.226 137.275 14.854C136.963 14.47 136.459 14.278 135.763 14.278C134.959 14.278 134.317 14.53 133.837 15.034C133.369 15.526 133.135 16.186 133.135 17.014V21.37C133.135 21.874 132.889 22.126 132.397 22.126ZM142.069 22C141.913 22 141.787 21.964 141.691 21.892C141.595 21.82 141.529 21.724 141.493 21.604C141.457 21.484 141.457 21.352 141.493 21.208C141.529 21.064 141.607 20.926 141.727 20.794L146.803 14.008V14.386H141.997C141.805 14.386 141.655 14.338 141.547 14.242C141.451 14.134 141.403 13.99 141.403 13.81C141.403 13.63 141.451 13.492 141.547 13.396C141.655 13.3 141.805 13.252 141.997 13.252H147.523C147.703 13.252 147.847 13.288 147.955 13.36C148.075 13.432 148.153 13.528 148.189 13.648C148.225 13.756 148.225 13.882 148.189 14.026C148.165 14.158 148.099 14.29 147.991 14.422L142.825 21.28V20.866H147.883C148.279 20.866 148.477 21.052 148.477 21.424C148.477 21.604 148.423 21.748 148.315 21.856C148.219 21.952 148.075 22 147.883 22H142.069ZM153.335 22.162C152.627 22.162 152.039 22.036 151.571 21.784C151.115 21.52 150.767 21.13 150.527 20.614C150.299 20.098 150.185 19.456 150.185 18.688V13.864C150.185 13.612 150.245 13.426 150.365 13.306C150.497 13.186 150.677 13.126 150.905 13.126C151.145 13.126 151.325 13.186 151.445 13.306C151.577 13.426 151.643 13.612 151.643 13.864V18.67C151.643 19.438 151.799 20.014 152.111 20.398C152.435 20.77 152.939 20.956 153.623 20.956C154.367 20.956 154.973 20.704 155.441 20.2C155.909 19.696 156.143 19.036 156.143 18.22V13.864C156.143 13.612 156.203 13.426 156.323 13.306C156.455 13.186 156.641 13.126 156.881 13.126C157.109 13.126 157.283 13.186 157.403 13.306C157.535 13.426 157.601 13.612 157.601 13.864V21.37C157.601 21.874 157.367 22.126 156.899 22.126C156.671 22.126 156.491 22.06 156.359 21.928C156.239 21.796 156.179 21.61 156.179 21.37V19.732L156.413 19.984C156.173 20.692 155.777 21.232 155.225 21.604C154.685 21.976 154.055 22.162 153.335 22.162ZM161.517 22.126C161.289 22.126 161.109 22.06 160.977 21.928C160.857 21.796 160.797 21.61 160.797 21.37V14.386H159.645C159.453 14.386 159.297 14.338 159.177 14.242C159.069 14.134 159.015 13.99 159.015 13.81C159.015 13.63 159.069 13.492 159.177 13.396C159.297 13.3 159.453 13.252 159.645 13.252H161.193L160.797 13.63V12.946C160.797 11.806 161.073 10.936 161.625 10.336C162.189 9.736 163.011 9.388 164.091 9.292L164.613 9.238C164.781 9.226 164.913 9.256 165.009 9.328C165.117 9.4 165.183 9.49 165.207 9.598C165.243 9.706 165.249 9.82 165.225 9.94C165.201 10.048 165.147 10.144 165.063 10.228C164.979 10.312 164.877 10.36 164.757 10.372L164.343 10.408C163.611 10.468 163.077 10.69 162.741 11.074C162.417 11.458 162.255 12.022 162.255 12.766V13.522L162.039 13.252H164.199C164.403 13.252 164.559 13.3 164.667 13.396C164.775 13.492 164.829 13.63 164.829 13.81C164.829 13.99 164.775 14.134 164.667 14.242C164.559 14.338 164.403 14.386 164.199 14.386H162.255V21.37C162.255 21.874 162.009 22.126 161.517 22.126ZM169.419 22.162C168.711 22.162 168.123 22.036 167.655 21.784C167.199 21.52 166.851 21.13 166.611 20.614C166.383 20.098 166.269 19.456 166.269 18.688V13.864C166.269 13.612 166.329 13.426 166.449 13.306C166.581 13.186 166.761 13.126 166.989 13.126C167.229 13.126 167.409 13.186 167.529 13.306C167.661 13.426 167.727 13.612 167.727 13.864V18.67C167.727 19.438 167.883 20.014 168.195 20.398C168.519 20.77 169.023 20.956 169.707 20.956C170.451 20.956 171.057 20.704 171.525 20.2C171.993 19.696 172.227 19.036 172.227 18.22V13.864C172.227 13.612 172.287 13.426 172.407 13.306C172.539 13.186 172.725 13.126 172.965 13.126C173.193 13.126 173.367 13.186 173.487 13.306C173.619 13.426 173.685 13.612 173.685 13.864V21.37C173.685 21.874 173.451 22.126 172.983 22.126C172.755 22.126 172.575 22.06 172.443 21.928C172.323 21.796 172.263 21.61 172.263 21.37V19.732L172.497 19.984C172.257 20.692 171.861 21.232 171.309 21.604C170.769 21.976 170.139 22.162 169.419 22.162ZM171.597 11.074C171.321 11.074 171.105 11.002 170.949 10.858C170.805 10.714 170.733 10.51 170.733 10.246C170.733 9.982 170.805 9.778 170.949 9.634C171.105 9.478 171.321 9.4 171.597 9.4C171.861 9.4 172.065 9.478 172.209 9.634C172.353 9.778 172.425 9.982 172.425 10.246C172.425 10.51 172.353 10.714 172.209 10.858C172.065 11.002 171.861 11.074 171.597 11.074ZM168.447 11.074C168.183 11.074 167.973 11.002 167.817 10.858C167.673 10.714 167.601 10.51 167.601 10.246C167.601 9.982 167.673 9.778 167.817 9.634C167.973 9.478 168.183 9.4 168.447 9.4C168.723 9.4 168.933 9.478 169.077 9.634C169.221 9.778 169.293 9.982 169.293 10.246C169.293 10.51 169.221 10.714 169.077 10.858C168.933 11.002 168.723 11.074 168.447 11.074ZM180.283 25.402C179.647 25.402 179.023 25.324 178.411 25.168C177.811 25.024 177.265 24.79 176.773 24.466C176.629 24.382 176.533 24.28 176.485 24.16C176.449 24.04 176.443 23.92 176.467 23.8C176.491 23.692 176.545 23.59 176.629 23.494C176.713 23.41 176.809 23.356 176.917 23.332C177.037 23.308 177.157 23.326 177.277 23.386C177.805 23.71 178.309 23.932 178.789 24.052C179.269 24.172 179.743 24.232 180.211 24.232C181.063 24.232 181.705 24.004 182.137 23.548C182.581 23.092 182.803 22.432 182.803 21.568V19.534H182.983C182.803 20.23 182.419 20.782 181.831 21.19C181.255 21.598 180.577 21.802 179.797 21.802C178.993 21.802 178.297 21.622 177.709 21.262C177.121 20.89 176.665 20.374 176.341 19.714C176.029 19.054 175.873 18.292 175.873 17.428C175.873 16.78 175.963 16.192 176.143 15.664C176.323 15.124 176.581 14.668 176.917 14.296C177.265 13.912 177.679 13.618 178.159 13.414C178.651 13.198 179.197 13.09 179.797 13.09C180.589 13.09 181.273 13.294 181.849 13.702C182.425 14.098 182.797 14.638 182.965 15.322L182.785 15.538V13.864C182.785 13.624 182.845 13.444 182.965 13.324C183.097 13.192 183.277 13.126 183.505 13.126C183.745 13.126 183.925 13.192 184.045 13.324C184.165 13.444 184.225 13.624 184.225 13.864V21.37C184.225 22.702 183.889 23.704 183.217 24.376C182.557 25.06 181.579 25.402 180.283 25.402ZM180.067 20.614C180.631 20.614 181.117 20.488 181.525 20.236C181.933 19.972 182.245 19.6 182.461 19.12C182.689 18.64 182.803 18.076 182.803 17.428C182.803 16.456 182.557 15.688 182.065 15.124C181.573 14.548 180.907 14.26 180.067 14.26C179.515 14.26 179.035 14.392 178.627 14.656C178.219 14.908 177.901 15.274 177.673 15.754C177.457 16.222 177.349 16.78 177.349 17.428C177.349 18.4 177.595 19.174 178.087 19.75C178.579 20.326 179.239 20.614 180.067 20.614ZM190.902 22.162C189.978 22.162 189.18 21.982 188.508 21.622C187.848 21.25 187.332 20.728 186.96 20.056C186.6 19.384 186.42 18.58 186.42 17.644C186.42 16.732 186.6 15.94 186.96 15.268C187.32 14.584 187.812 14.05 188.436 13.666C189.072 13.282 189.804 13.09 190.632 13.09C191.22 13.09 191.748 13.192 192.216 13.396C192.684 13.588 193.08 13.87 193.404 14.242C193.74 14.614 193.992 15.064 194.16 15.592C194.34 16.12 194.43 16.714 194.43 17.374C194.43 17.566 194.376 17.71 194.268 17.806C194.16 17.89 194.004 17.932 193.8 17.932H187.536V16.978H193.458L193.17 17.212C193.17 16.564 193.074 16.018 192.882 15.574C192.69 15.118 192.408 14.77 192.036 14.53C191.676 14.29 191.22 14.17 190.668 14.17C190.056 14.17 189.534 14.314 189.102 14.602C188.682 14.878 188.364 15.268 188.148 15.772C187.932 16.264 187.824 16.84 187.824 17.5V17.608C187.824 18.712 188.088 19.552 188.616 20.128C189.156 20.704 189.918 20.992 190.902 20.992C191.31 20.992 191.712 20.938 192.108 20.83C192.516 20.722 192.912 20.542 193.296 20.29C193.464 20.182 193.614 20.134 193.746 20.146C193.89 20.146 194.004 20.188 194.088 20.272C194.172 20.344 194.226 20.44 194.25 20.56C194.286 20.668 194.274 20.788 194.214 20.92C194.166 21.052 194.064 21.166 193.908 21.262C193.512 21.55 193.044 21.772 192.504 21.928C191.964 22.084 191.43 22.162 190.902 22.162ZM197.26 22.126C197.02 22.126 196.84 22.06 196.72 21.928C196.6 21.796 196.54 21.61 196.54 21.37V13.864C196.54 13.624 196.6 13.444 196.72 13.324C196.84 13.192 197.014 13.126 197.242 13.126C197.47 13.126 197.644 13.192 197.764 13.324C197.896 13.444 197.962 13.624 197.962 13.864V15.412L197.764 15.196C198.016 14.5 198.424 13.978 198.988 13.63C199.564 13.27 200.224 13.09 200.968 13.09C201.664 13.09 202.24 13.216 202.696 13.468C203.164 13.72 203.512 14.104 203.74 14.62C203.968 15.124 204.082 15.766 204.082 16.546V21.37C204.082 21.61 204.016 21.796 203.884 21.928C203.764 22.06 203.59 22.126 203.362 22.126C203.122 22.126 202.936 22.06 202.804 21.928C202.684 21.796 202.624 21.61 202.624 21.37V16.636C202.624 15.82 202.462 15.226 202.138 14.854C201.826 14.47 201.322 14.278 200.626 14.278C199.822 14.278 199.18 14.53 198.7 15.034C198.232 15.526 197.998 16.186 197.998 17.014V21.37C197.998 21.874 197.752 22.126 197.26 22.126Z" fill="black"/>
</svg>
