<svg width="254" height="40" viewBox="0 0 254 40" fill="none" xmlns="http://www.w3.org/2000/svg">
<mask id="mask0_237_780" style="mask-type:alpha" maskUnits="userSpaceOnUse" x="0" y="5" width="30" height="30">
<rect y="35" width="30" height="30" transform="rotate(-90 0 35)" fill="#D9D9D9"/>
</mask>
<g mask="url(#mask0_237_780)">
<path d="M18.125 21.1564L14.7812 24.5002C14.2604 25.021 13.6667 25.146 13 24.8752C12.3333 24.6043 12 24.1043 12 23.3752V16.6252C12 15.896 12.3333 15.396 13 15.1252C13.6667 14.8543 14.2604 14.9793 14.7812 15.5002L18.125 18.8439C18.2917 19.0106 18.4112 19.1927 18.4837 19.3902C18.5571 19.5885 18.5937 19.7918 18.5937 20.0002C18.5937 20.2085 18.5571 20.4118 18.4837 20.6102C18.4112 20.8077 18.2917 20.9898 18.125 21.1564Z" fill="#535AF1"/>
</g>
<mask id="mask1_237_780" style="mask-type:alpha" maskUnits="userSpaceOnUse" x="45" y="8" width="24" height="24">
<rect x="45" y="8" width="24" height="24" fill="#D9D9D9"/>
</mask>
<g mask="url(#mask1_237_780)">
<path d="M50.85 25.1C51.7 24.45 52.65 23.9373 53.7 23.562C54.75 23.1873 55.85 23 57 23C58.15 23 59.25 23.1873 60.3 23.562C61.35 23.9373 62.3 24.45 63.15 25.1C63.7333 24.4167 64.1877 23.6417 64.513 22.775C64.8377 21.9083 65 20.9833 65 20C65 17.7833 64.221 15.8957 62.663 14.337C61.1043 12.779 59.2167 12 57 12C54.7833 12 52.896 12.779 51.338 14.337C49.7793 15.8957 49 17.7833 49 20C49 20.9833 49.1627 21.9083 49.488 22.775C49.8127 23.6417 50.2667 24.4167 50.85 25.1ZM57 21C56.0167 21 55.1873 20.6627 54.512 19.988C53.8373 19.3127 53.5 18.4833 53.5 17.5C53.5 16.5167 53.8373 15.6873 54.512 15.012C55.1873 14.3373 56.0167 14 57 14C57.9833 14 58.8127 14.3373 59.488 15.012C60.1627 15.6873 60.5 16.5167 60.5 17.5C60.5 18.4833 60.1627 19.3127 59.488 19.988C58.8127 20.6627 57.9833 21 57 21ZM57 30C55.6167 30 54.3167 29.7373 53.1 29.212C51.8833 28.6873 50.825 27.975 49.925 27.075C49.025 26.175 48.3127 25.1167 47.788 23.9C47.2627 22.6833 47 21.3833 47 20C47 18.6167 47.2627 17.3167 47.788 16.1C48.3127 14.8833 49.025 13.825 49.925 12.925C50.825 12.025 51.8833 11.3123 53.1 10.787C54.3167 10.2623 55.6167 10 57 10C58.3833 10 59.6833 10.2623 60.9 10.787C62.1167 11.3123 63.175 12.025 64.075 12.925C64.975 13.825 65.6873 14.8833 66.212 16.1C66.7373 17.3167 67 18.6167 67 20C67 21.3833 66.7373 22.6833 66.212 23.9C65.6873 25.1167 64.975 26.175 64.075 27.075C63.175 27.975 62.1167 28.6873 60.9 29.212C59.6833 29.7373 58.3833 30 57 30ZM57 28C57.8833 28 58.7167 27.871 59.5 27.613C60.2833 27.3543 61 26.9833 61.65 26.5C61 26.0167 60.2833 25.6457 59.5 25.387C58.7167 25.129 57.8833 25 57 25C56.1167 25 55.2833 25.129 54.5 25.387C53.7167 25.6457 53 26.0167 52.35 26.5C53 26.9833 53.7167 27.3543 54.5 27.613C55.2833 27.871 56.1167 28 57 28ZM57 19C57.4333 19 57.7917 18.8583 58.075 18.575C58.3583 18.2917 58.5 17.9333 58.5 17.5C58.5 17.0667 58.3583 16.7083 58.075 16.425C57.7917 16.1417 57.4333 16 57 16C56.5667 16 56.2083 16.1417 55.925 16.425C55.6417 16.7083 55.5 17.0667 55.5 17.5C55.5 17.9333 55.6417 18.2917 55.925 18.575C56.2083 18.8583 56.5667 19 57 19Z" fill="#535AF1"/>
</g>
<path d="M81.9 26.5C81.46 26.5 81.12 26.3867 80.88 26.16C80.6533 25.92 80.54 25.58 80.54 25.14V13.76C80.54 13.32 80.6533 12.9867 80.88 12.76C81.12 12.52 81.46 12.4 81.9 12.4H85.78C88.14 12.4 89.96 13.0067 91.24 14.22C92.5333 15.4333 93.18 17.1733 93.18 19.44C93.18 20.5733 93.0133 21.58 92.68 22.46C92.36 23.3267 91.88 24.06 91.24 24.66C90.6133 25.26 89.84 25.72 88.92 26.04C88.0133 26.3467 86.9667 26.5 85.78 26.5H81.9ZM83.1 24.38H85.62C86.4467 24.38 87.16 24.28 87.76 24.08C88.3733 23.8667 88.88 23.56 89.28 23.16C89.6933 22.7467 90 22.2333 90.2 21.62C90.4 20.9933 90.5 20.2667 90.5 19.44C90.5 17.7867 90.0933 16.5533 89.28 15.74C88.4667 14.9267 87.2467 14.52 85.62 14.52H83.1V24.38ZM96.7744 26.64C96.3744 26.64 96.0677 26.52 95.8544 26.28C95.641 26.04 95.5344 25.7067 95.5344 25.28V17.94C95.5344 17.5 95.641 17.1667 95.8544 16.94C96.0677 16.7 96.3744 16.58 96.7744 16.58C97.1744 16.58 97.481 16.7 97.6944 16.94C97.921 17.1667 98.0344 17.5 98.0344 17.94V25.28C98.0344 25.7067 97.9277 26.04 97.7144 26.28C97.501 26.52 97.1877 26.64 96.7744 26.64ZM96.7744 14.72C96.3077 14.72 95.941 14.6067 95.6744 14.38C95.421 14.14 95.2944 13.8133 95.2944 13.4C95.2944 12.9733 95.421 12.6467 95.6744 12.42C95.941 12.1933 96.3077 12.08 96.7744 12.08C97.2544 12.08 97.621 12.1933 97.8744 12.42C98.1277 12.6467 98.2544 12.9733 98.2544 13.4C98.2544 13.8133 98.1277 14.14 97.8744 14.38C97.621 14.6067 97.2544 14.72 96.7744 14.72ZM101.912 26.66C101.499 26.66 101.179 26.5533 100.952 26.34C100.739 26.1133 100.632 25.7933 100.632 25.38V17.82C100.632 17.4067 100.739 17.0933 100.952 16.88C101.165 16.6667 101.465 16.56 101.852 16.56C102.239 16.56 102.539 16.6667 102.752 16.88C102.965 17.0933 103.072 17.4067 103.072 17.82V19.08H102.872C103.059 18.28 103.425 17.6733 103.972 17.26C104.519 16.8467 105.245 16.6 106.152 16.52C106.432 16.4933 106.652 16.5667 106.812 16.74C106.985 16.9 107.085 17.1533 107.112 17.5C107.139 17.8333 107.059 18.1067 106.872 18.32C106.699 18.52 106.432 18.64 106.072 18.68L105.632 18.72C104.819 18.8 104.205 19.0533 103.792 19.48C103.379 19.8933 103.172 20.48 103.172 21.24V25.38C103.172 25.7933 103.065 26.1133 102.852 26.34C102.639 26.5533 102.325 26.66 101.912 26.66ZM113.128 26.7C112.021 26.7 111.068 26.4933 110.268 26.08C109.468 25.6667 108.848 25.08 108.408 24.32C107.981 23.56 107.768 22.66 107.768 21.62C107.768 20.6067 107.974 19.72 108.388 18.96C108.814 18.2 109.394 17.6067 110.128 17.18C110.874 16.74 111.721 16.52 112.668 16.52C113.361 16.52 113.981 16.6333 114.528 16.86C115.088 17.0867 115.561 17.4133 115.948 17.84C116.348 18.2667 116.648 18.7867 116.848 19.4C117.061 20 117.168 20.68 117.168 21.44C117.168 21.68 117.081 21.8667 116.908 22C116.748 22.12 116.514 22.18 116.208 22.18H109.788V20.74H115.408L115.088 21.04C115.088 20.4267 114.994 19.9133 114.808 19.5C114.634 19.0867 114.374 18.7733 114.028 18.56C113.694 18.3333 113.274 18.22 112.768 18.22C112.208 18.22 111.728 18.3533 111.328 18.62C110.941 18.8733 110.641 19.24 110.428 19.72C110.228 20.1867 110.128 20.7467 110.128 21.4V21.54C110.128 22.6333 110.381 23.4533 110.888 24C111.408 24.5333 112.168 24.8 113.168 24.8C113.514 24.8 113.901 24.76 114.328 24.68C114.768 24.5867 115.181 24.4333 115.568 24.22C115.848 24.06 116.094 23.9933 116.308 24.02C116.521 24.0333 116.688 24.1067 116.808 24.24C116.941 24.3733 117.021 24.54 117.048 24.74C117.074 24.9267 117.034 25.12 116.928 25.32C116.834 25.52 116.668 25.6933 116.428 25.84C115.961 26.1333 115.421 26.3533 114.808 26.5C114.208 26.6333 113.648 26.7 113.128 26.7ZM120.388 26.66C119.988 26.66 119.681 26.5533 119.468 26.34C119.254 26.1133 119.148 25.7933 119.148 25.38V13.5C119.148 13.0867 119.254 12.7733 119.468 12.56C119.681 12.3467 119.988 12.24 120.388 12.24C120.788 12.24 121.094 12.3467 121.308 12.56C121.534 12.7733 121.648 13.0867 121.648 13.5V20.88H121.688L124.988 17.4C125.254 17.1333 125.488 16.9267 125.688 16.78C125.888 16.6333 126.161 16.56 126.508 16.56C126.854 16.56 127.114 16.6533 127.288 16.84C127.474 17.0133 127.568 17.2267 127.568 17.48C127.568 17.7333 127.448 17.9867 127.208 18.24L123.728 21.92V20.88L127.548 25C127.788 25.2533 127.894 25.5133 127.868 25.78C127.854 26.0333 127.748 26.2467 127.548 26.42C127.348 26.58 127.094 26.66 126.788 26.66C126.414 26.66 126.114 26.5867 125.888 26.44C125.674 26.2933 125.434 26.0733 125.168 25.78L121.688 22.14H121.648V25.38C121.648 26.2333 121.228 26.66 120.388 26.66ZM134.057 26.7C133.191 26.7 132.464 26.5533 131.877 26.26C131.304 25.9667 130.877 25.54 130.597 24.98C130.317 24.4067 130.177 23.7 130.177 22.86V18.6H129.137C128.817 18.6 128.571 18.52 128.397 18.36C128.224 18.1867 128.137 17.9533 128.137 17.66C128.137 17.3533 128.224 17.12 128.397 16.96C128.571 16.8 128.817 16.72 129.137 16.72H130.177V14.9C130.177 14.4867 130.284 14.1733 130.497 13.96C130.724 13.7467 131.037 13.64 131.437 13.64C131.837 13.64 132.144 13.7467 132.357 13.96C132.571 14.1733 132.677 14.4867 132.677 14.9V16.72H134.797C135.117 16.72 135.364 16.8 135.537 16.96C135.711 17.12 135.797 17.3533 135.797 17.66C135.797 17.9533 135.711 18.1867 135.537 18.36C135.364 18.52 135.117 18.6 134.797 18.6H132.677V22.72C132.677 23.36 132.817 23.84 133.097 24.16C133.377 24.48 133.831 24.64 134.457 24.64C134.684 24.64 134.884 24.62 135.057 24.58C135.231 24.54 135.384 24.5133 135.517 24.5C135.677 24.4867 135.811 24.54 135.917 24.66C136.024 24.7667 136.077 24.9933 136.077 25.34C136.077 25.6067 136.031 25.8467 135.937 26.06C135.857 26.26 135.704 26.4 135.477 26.48C135.304 26.5333 135.077 26.58 134.797 26.62C134.517 26.6733 134.271 26.7 134.057 26.7ZM138.493 26.66C138.093 26.66 137.786 26.5533 137.573 26.34C137.36 26.1133 137.253 25.7933 137.253 25.38V17.82C137.253 17.4067 137.36 17.0933 137.573 16.88C137.786 16.6667 138.086 16.56 138.473 16.56C138.86 16.56 139.16 16.6667 139.373 16.88C139.586 17.0933 139.693 17.4067 139.693 17.82V19.18L139.473 18.68C139.766 17.9733 140.22 17.44 140.833 17.08C141.46 16.7067 142.166 16.52 142.953 16.52C143.74 16.52 144.386 16.6667 144.893 16.96C145.4 17.2533 145.78 17.7 146.033 18.3C146.286 18.8867 146.413 19.6333 146.413 20.54V25.38C146.413 25.7933 146.306 26.1133 146.093 26.34C145.88 26.5533 145.573 26.66 145.173 26.66C144.773 26.66 144.46 26.5533 144.233 26.34C144.02 26.1133 143.913 25.7933 143.913 25.38V20.66C143.913 19.9 143.766 19.3467 143.473 19C143.193 18.6533 142.753 18.48 142.153 18.48C141.42 18.48 140.833 18.7133 140.393 19.18C139.966 19.6333 139.753 20.24 139.753 21V25.38C139.753 26.2333 139.333 26.66 138.493 26.66ZM152.172 26.7C151.466 26.7 150.832 26.5667 150.272 26.3C149.726 26.02 149.292 25.6467 148.972 25.18C148.666 24.7133 148.512 24.1867 148.512 23.6C148.512 22.88 148.699 22.3133 149.072 21.9C149.446 21.4733 150.052 21.1667 150.892 20.98C151.732 20.7933 152.859 20.7 154.272 20.7H155.272V22.14H154.292C153.466 22.14 152.806 22.18 152.312 22.26C151.819 22.34 151.466 22.48 151.252 22.68C151.052 22.8667 150.952 23.1333 150.952 23.48C150.952 23.92 151.106 24.28 151.412 24.56C151.719 24.84 152.146 24.98 152.692 24.98C153.132 24.98 153.519 24.88 153.852 24.68C154.199 24.4667 154.472 24.18 154.672 23.82C154.872 23.46 154.972 23.0467 154.972 22.58V20.28C154.972 19.6133 154.826 19.1333 154.532 18.84C154.239 18.5467 153.746 18.4 153.052 18.4C152.666 18.4 152.246 18.4467 151.792 18.54C151.352 18.6333 150.886 18.7933 150.392 19.02C150.139 19.14 149.912 19.1733 149.712 19.12C149.526 19.0667 149.379 18.96 149.272 18.8C149.166 18.6267 149.112 18.44 149.112 18.24C149.112 18.04 149.166 17.8467 149.272 17.66C149.379 17.46 149.559 17.3133 149.812 17.22C150.426 16.9667 151.012 16.7867 151.572 16.68C152.146 16.5733 152.666 16.52 153.132 16.52C154.092 16.52 154.879 16.6667 155.492 16.96C156.119 17.2533 156.586 17.7 156.892 18.3C157.199 18.8867 157.352 19.6467 157.352 20.58V25.38C157.352 25.7933 157.252 26.1133 157.052 26.34C156.852 26.5533 156.566 26.66 156.192 26.66C155.819 26.66 155.526 26.5533 155.312 26.34C155.112 26.1133 155.012 25.7933 155.012 25.38V24.42H155.172C155.079 24.8867 154.892 25.2933 154.612 25.64C154.346 25.9733 154.006 26.2333 153.592 26.42C153.179 26.6067 152.706 26.7 152.172 26.7ZM164.41 26.7C163.383 26.7 162.49 26.4933 161.73 26.08C160.97 25.6533 160.383 25.0533 159.97 24.28C159.557 23.5067 159.35 22.6 159.35 21.56C159.35 20.7733 159.463 20.0733 159.69 19.46C159.93 18.8333 160.27 18.3067 160.71 17.88C161.15 17.44 161.683 17.1067 162.31 16.88C162.937 16.64 163.637 16.52 164.41 16.52C164.85 16.52 165.323 16.58 165.83 16.7C166.35 16.82 166.837 17.02 167.29 17.3C167.503 17.4333 167.643 17.5933 167.71 17.78C167.777 17.9667 167.79 18.16 167.75 18.36C167.71 18.5467 167.623 18.7133 167.49 18.86C167.37 18.9933 167.217 19.08 167.03 19.12C166.843 19.1467 166.637 19.1 166.41 18.98C166.117 18.8067 165.817 18.68 165.51 18.6C165.203 18.5067 164.91 18.46 164.63 18.46C164.19 18.46 163.803 18.5333 163.47 18.68C163.137 18.8133 162.85 19.0133 162.61 19.28C162.383 19.5333 162.21 19.8533 162.09 20.24C161.97 20.6267 161.91 21.0733 161.91 21.58C161.91 22.5667 162.143 23.3467 162.61 23.92C163.09 24.48 163.763 24.76 164.63 24.76C164.91 24.76 165.197 24.72 165.49 24.64C165.797 24.56 166.103 24.4333 166.41 24.26C166.637 24.14 166.837 24.1 167.01 24.14C167.197 24.18 167.35 24.2733 167.47 24.42C167.59 24.5533 167.663 24.72 167.69 24.92C167.717 25.1067 167.69 25.2933 167.61 25.48C167.543 25.6667 167.41 25.82 167.21 25.94C166.77 26.2067 166.303 26.4 165.81 26.52C165.317 26.64 164.85 26.7 164.41 26.7ZM170.563 26.66C170.163 26.66 169.857 26.5533 169.643 26.34C169.43 26.1133 169.323 25.7933 169.323 25.38V13.5C169.323 13.0867 169.43 12.7733 169.643 12.56C169.857 12.3467 170.163 12.24 170.563 12.24C170.963 12.24 171.27 12.3467 171.483 12.56C171.71 12.7733 171.823 13.0867 171.823 13.5V18.68H171.543C171.837 17.9733 172.29 17.44 172.903 17.08C173.53 16.7067 174.237 16.52 175.023 16.52C175.81 16.52 176.457 16.6667 176.963 16.96C177.47 17.2533 177.85 17.7 178.103 18.3C178.357 18.8867 178.483 19.6333 178.483 20.54V25.38C178.483 25.7933 178.377 26.1133 178.163 26.34C177.95 26.5533 177.643 26.66 177.243 26.66C176.843 26.66 176.53 26.5533 176.303 26.34C176.09 26.1133 175.983 25.7933 175.983 25.38V20.66C175.983 19.9 175.837 19.3467 175.543 19C175.263 18.6533 174.823 18.48 174.223 18.48C173.49 18.48 172.903 18.7133 172.463 19.18C172.037 19.6333 171.823 20.24 171.823 21V25.38C171.823 26.2333 171.403 26.66 170.563 26.66ZM182.303 26.66C181.889 26.66 181.569 26.5533 181.343 26.34C181.129 26.1133 181.023 25.7933 181.023 25.38V17.82C181.023 17.4067 181.129 17.0933 181.343 16.88C181.556 16.6667 181.856 16.56 182.243 16.56C182.629 16.56 182.929 16.6667 183.143 16.88C183.356 17.0933 183.463 17.4067 183.463 17.82V19.08H183.263C183.449 18.28 183.816 17.6733 184.363 17.26C184.909 16.8467 185.636 16.6 186.543 16.52C186.823 16.4933 187.043 16.5667 187.203 16.74C187.376 16.9 187.476 17.1533 187.503 17.5C187.529 17.8333 187.449 18.1067 187.263 18.32C187.089 18.52 186.823 18.64 186.463 18.68L186.023 18.72C185.209 18.8 184.596 19.0533 184.183 19.48C183.769 19.8933 183.563 20.48 183.563 21.24V25.38C183.563 25.7933 183.456 26.1133 183.243 26.34C183.029 26.5533 182.716 26.66 182.303 26.66ZM190.095 26.64C189.695 26.64 189.388 26.52 189.175 26.28C188.961 26.04 188.855 25.7067 188.855 25.28V17.94C188.855 17.5 188.961 17.1667 189.175 16.94C189.388 16.7 189.695 16.58 190.095 16.58C190.495 16.58 190.801 16.7 191.015 16.94C191.241 17.1667 191.355 17.5 191.355 17.94V25.28C191.355 25.7067 191.248 26.04 191.035 26.28C190.821 26.52 190.508 26.64 190.095 26.64ZM190.095 14.72C189.628 14.72 189.261 14.6067 188.995 14.38C188.741 14.14 188.615 13.8133 188.615 13.4C188.615 12.9733 188.741 12.6467 188.995 12.42C189.261 12.1933 189.628 12.08 190.095 12.08C190.575 12.08 190.941 12.1933 191.195 12.42C191.448 12.6467 191.575 12.9733 191.575 13.4C191.575 13.8133 191.448 14.14 191.195 14.38C190.941 14.6067 190.575 14.72 190.095 14.72ZM198.472 26.7C197.446 26.7 196.552 26.4933 195.792 26.08C195.032 25.6533 194.446 25.0533 194.032 24.28C193.619 23.5067 193.412 22.6 193.412 21.56C193.412 20.7733 193.526 20.0733 193.752 19.46C193.992 18.8333 194.332 18.3067 194.772 17.88C195.212 17.44 195.746 17.1067 196.372 16.88C196.999 16.64 197.699 16.52 198.472 16.52C198.912 16.52 199.386 16.58 199.892 16.7C200.412 16.82 200.899 17.02 201.352 17.3C201.566 17.4333 201.706 17.5933 201.772 17.78C201.839 17.9667 201.852 18.16 201.812 18.36C201.772 18.5467 201.686 18.7133 201.552 18.86C201.432 18.9933 201.279 19.08 201.092 19.12C200.906 19.1467 200.699 19.1 200.472 18.98C200.179 18.8067 199.879 18.68 199.572 18.6C199.266 18.5067 198.972 18.46 198.692 18.46C198.252 18.46 197.866 18.5333 197.532 18.68C197.199 18.8133 196.912 19.0133 196.672 19.28C196.446 19.5333 196.272 19.8533 196.152 20.24C196.032 20.6267 195.972 21.0733 195.972 21.58C195.972 22.5667 196.206 23.3467 196.672 23.92C197.152 24.48 197.826 24.76 198.692 24.76C198.972 24.76 199.259 24.72 199.552 24.64C199.859 24.56 200.166 24.4333 200.472 24.26C200.699 24.14 200.899 24.1 201.072 24.14C201.259 24.18 201.412 24.2733 201.532 24.42C201.652 24.5533 201.726 24.72 201.752 24.92C201.779 25.1067 201.752 25.2933 201.672 25.48C201.606 25.6667 201.472 25.82 201.272 25.94C200.832 26.2067 200.366 26.4 199.872 26.52C199.379 26.64 198.912 26.7 198.472 26.7ZM204.626 26.66C204.226 26.66 203.919 26.5533 203.706 26.34C203.493 26.1133 203.386 25.7933 203.386 25.38V13.5C203.386 13.0867 203.493 12.7733 203.706 12.56C203.919 12.3467 204.226 12.24 204.626 12.24C205.026 12.24 205.333 12.3467 205.546 12.56C205.773 12.7733 205.886 13.0867 205.886 13.5V18.68H205.606C205.899 17.9733 206.353 17.44 206.966 17.08C207.593 16.7067 208.299 16.52 209.086 16.52C209.873 16.52 210.519 16.6667 211.026 16.96C211.533 17.2533 211.913 17.7 212.166 18.3C212.419 18.8867 212.546 19.6333 212.546 20.54V25.38C212.546 25.7933 212.439 26.1133 212.226 26.34C212.013 26.5533 211.706 26.66 211.306 26.66C210.906 26.66 210.593 26.5533 210.366 26.34C210.153 26.1133 210.046 25.7933 210.046 25.38V20.66C210.046 19.9 209.899 19.3467 209.606 19C209.326 18.6533 208.886 18.48 208.286 18.48C207.553 18.48 206.966 18.7133 206.526 19.18C206.099 19.6333 205.886 20.24 205.886 21V25.38C205.886 26.2333 205.466 26.66 204.626 26.66ZM219.565 26.7C218.698 26.7 217.972 26.5533 217.385 26.26C216.812 25.9667 216.385 25.54 216.105 24.98C215.825 24.4067 215.685 23.7 215.685 22.86V18.6H214.645C214.325 18.6 214.078 18.52 213.905 18.36C213.732 18.1867 213.645 17.9533 213.645 17.66C213.645 17.3533 213.732 17.12 213.905 16.96C214.078 16.8 214.325 16.72 214.645 16.72H215.685V14.9C215.685 14.4867 215.792 14.1733 216.005 13.96C216.232 13.7467 216.545 13.64 216.945 13.64C217.345 13.64 217.652 13.7467 217.865 13.96C218.078 14.1733 218.185 14.4867 218.185 14.9V16.72H220.305C220.625 16.72 220.872 16.8 221.045 16.96C221.218 17.12 221.305 17.3533 221.305 17.66C221.305 17.9533 221.218 18.1867 221.045 18.36C220.872 18.52 220.625 18.6 220.305 18.6H218.185V22.72C218.185 23.36 218.325 23.84 218.605 24.16C218.885 24.48 219.338 24.64 219.965 24.64C220.192 24.64 220.392 24.62 220.565 24.58C220.738 24.54 220.892 24.5133 221.025 24.5C221.185 24.4867 221.318 24.54 221.425 24.66C221.532 24.7667 221.585 24.9933 221.585 25.34C221.585 25.6067 221.538 25.8467 221.445 26.06C221.365 26.26 221.212 26.4 220.985 26.48C220.812 26.5333 220.585 26.58 220.305 26.62C220.025 26.6733 219.778 26.7 219.565 26.7ZM227.483 26.7C226.377 26.7 225.423 26.4933 224.623 26.08C223.823 25.6667 223.203 25.08 222.763 24.32C222.337 23.56 222.123 22.66 222.123 21.62C222.123 20.6067 222.33 19.72 222.743 18.96C223.17 18.2 223.75 17.6067 224.483 17.18C225.23 16.74 226.077 16.52 227.023 16.52C227.717 16.52 228.337 16.6333 228.883 16.86C229.443 17.0867 229.917 17.4133 230.303 17.84C230.703 18.2667 231.003 18.7867 231.203 19.4C231.417 20 231.523 20.68 231.523 21.44C231.523 21.68 231.437 21.8667 231.263 22C231.103 22.12 230.87 22.18 230.563 22.18H224.143V20.74H229.763L229.443 21.04C229.443 20.4267 229.35 19.9133 229.163 19.5C228.99 19.0867 228.73 18.7733 228.383 18.56C228.05 18.3333 227.63 18.22 227.123 18.22C226.563 18.22 226.083 18.3533 225.683 18.62C225.297 18.8733 224.997 19.24 224.783 19.72C224.583 20.1867 224.483 20.7467 224.483 21.4V21.54C224.483 22.6333 224.737 23.4533 225.243 24C225.763 24.5333 226.523 24.8 227.523 24.8C227.87 24.8 228.257 24.76 228.683 24.68C229.123 24.5867 229.537 24.4333 229.923 24.22C230.203 24.06 230.45 23.9933 230.663 24.02C230.877 24.0333 231.043 24.1067 231.163 24.24C231.297 24.3733 231.377 24.54 231.403 24.74C231.43 24.9267 231.39 25.12 231.283 25.32C231.19 25.52 231.023 25.6933 230.783 25.84C230.317 26.1333 229.777 26.3533 229.163 26.5C228.563 26.6333 228.003 26.7 227.483 26.7ZM234.743 26.66C234.343 26.66 234.036 26.5533 233.823 26.34C233.61 26.1133 233.503 25.7933 233.503 25.38V17.82C233.503 17.4067 233.61 17.0933 233.823 16.88C234.036 16.6667 234.336 16.56 234.723 16.56C235.11 16.56 235.41 16.6667 235.623 16.88C235.836 17.0933 235.943 17.4067 235.943 17.82V19.18L235.723 18.68C236.016 17.9733 236.47 17.44 237.083 17.08C237.71 16.7067 238.416 16.52 239.203 16.52C239.99 16.52 240.636 16.6667 241.143 16.96C241.65 17.2533 242.03 17.7 242.283 18.3C242.536 18.8867 242.663 19.6333 242.663 20.54V25.38C242.663 25.7933 242.556 26.1133 242.343 26.34C242.13 26.5533 241.823 26.66 241.423 26.66C241.023 26.66 240.71 26.5533 240.483 26.34C240.27 26.1133 240.163 25.7933 240.163 25.38V20.66C240.163 19.9 240.016 19.3467 239.723 19C239.443 18.6533 239.003 18.48 238.403 18.48C237.67 18.48 237.083 18.7133 236.643 19.18C236.216 19.6333 236.003 20.24 236.003 21V25.38C236.003 26.2333 235.583 26.66 234.743 26.66Z" fill="black"/>
</svg>
