<svg width="176" height="40" viewBox="0 0 176 40" fill="none" xmlns="http://www.w3.org/2000/svg">
<mask id="mask0_237_630" style="mask-type:alpha" maskUnits="userSpaceOnUse" x="0" y="5" width="30" height="30">
<rect y="5" width="30" height="30" fill="#D9D9D9"/>
</mask>
<g mask="url(#mask0_237_630)">
<path d="M14.1251 22.875L10.8751 19.625C10.4792 19.2292 10.3909 18.7762 10.6101 18.2662C10.8284 17.7554 11.2188 17.5 11.7813 17.5H18.2188C18.7813 17.5 19.1717 17.7554 19.3901 18.2662C19.6092 18.7762 19.5209 19.2292 19.1251 19.625L15.8751 22.875C15.7501 23 15.6147 23.0937 15.4688 23.1562C15.323 23.2187 15.1667 23.25 15.0001 23.25C14.8334 23.25 14.6772 23.2187 14.5313 23.1562C14.3855 23.0937 14.2501 23 14.1251 22.875Z" fill="black"/>
</g>
<mask id="mask1_237_630" style="mask-type:alpha" maskUnits="userSpaceOnUse" x="45" y="8" width="24" height="24">
<rect x="45" y="8" width="24" height="24" fill="#D9D9D9"/>
</mask>
<g mask="url(#mask1_237_630)">
<path d="M51 29C49.9 29 48.9583 28.6083 48.175 27.825C47.3917 27.0417 47 26.1 47 25C47 23.9 47.3917 22.9583 48.175 22.175C48.9583 21.3917 49.9 21 51 21C52.1 21 53.0417 21.3917 53.825 22.175C54.6083 22.9583 55 23.9 55 25C55 26.1 54.6083 27.0417 53.825 27.825C53.0417 28.6083 52.1 29 51 29ZM63 29C61.9 29 60.9583 28.6083 60.175 27.825C59.3917 27.0417 59 26.1 59 25C59 23.9 59.3917 22.9583 60.175 22.175C60.9583 21.3917 61.9 21 63 21C64.1 21 65.0417 21.3917 65.825 22.175C66.6083 22.9583 67 23.9 67 25C67 26.1 66.6083 27.0417 65.825 27.825C65.0417 28.6083 64.1 29 63 29ZM51 27C51.55 27 52.0207 26.8043 52.412 26.413C52.804 26.021 53 25.55 53 25C53 24.45 52.804 23.9793 52.412 23.588C52.0207 23.196 51.55 23 51 23C50.45 23 49.9793 23.196 49.588 23.588C49.196 23.9793 49 24.45 49 25C49 25.55 49.196 26.021 49.588 26.413C49.9793 26.8043 50.45 27 51 27ZM63 27C63.55 27 64.021 26.8043 64.413 26.413C64.8043 26.021 65 25.55 65 25C65 24.45 64.8043 23.9793 64.413 23.588C64.021 23.196 63.55 23 63 23C62.45 23 61.979 23.196 61.587 23.588C61.1957 23.9793 61 24.45 61 25C61 25.55 61.1957 26.021 61.587 26.413C61.979 26.8043 62.45 27 63 27ZM57 19C55.9 19 54.9583 18.6083 54.175 17.825C53.3917 17.0417 53 16.1 53 15C53 13.9 53.3917 12.9583 54.175 12.175C54.9583 11.3917 55.9 11 57 11C58.1 11 59.0417 11.3917 59.825 12.175C60.6083 12.9583 61 13.9 61 15C61 16.1 60.6083 17.0417 59.825 17.825C59.0417 18.6083 58.1 19 57 19ZM57 17C57.55 17 58.021 16.804 58.413 16.412C58.8043 16.0207 59 15.55 59 15C59 14.45 58.8043 13.9793 58.413 13.588C58.021 13.196 57.55 13 57 13C56.45 13 55.9793 13.196 55.588 13.588C55.196 13.9793 55 14.45 55 15C55 15.55 55.196 16.0207 55.588 16.412C55.9793 16.804 56.45 17 57 17Z" fill="black"/>
</g>
<path d="M87.1 26.7C85.6333 26.7 84.3733 26.4067 83.32 25.82C82.28 25.22 81.48 24.38 80.92 23.3C80.36 22.2067 80.08 20.92 80.08 19.44C80.08 18.3333 80.24 17.34 80.56 16.46C80.88 15.5667 81.34 14.8067 81.94 14.18C82.54 13.54 83.2733 13.0533 84.14 12.72C85.02 12.3733 86.0067 12.2 87.1 12.2C87.8333 12.2 88.5533 12.2933 89.26 12.48C89.9667 12.6667 90.5867 12.9333 91.12 13.28C91.4 13.4533 91.5867 13.6667 91.68 13.92C91.7733 14.16 91.7933 14.4 91.74 14.64C91.6867 14.8667 91.5733 15.06 91.4 15.22C91.24 15.38 91.0333 15.4733 90.78 15.5C90.54 15.5133 90.2733 15.4267 89.98 15.24C89.5667 14.9733 89.12 14.78 88.64 14.66C88.16 14.54 87.6733 14.48 87.18 14.48C86.2333 14.48 85.4333 14.6733 84.78 15.06C84.1267 15.4467 83.6333 16.0067 83.3 16.74C82.9667 17.4733 82.8 18.3733 82.8 19.44C82.8 20.4933 82.9667 21.3933 83.3 22.14C83.6333 22.8867 84.1267 23.4533 84.78 23.84C85.4333 24.2267 86.2333 24.42 87.18 24.42C87.6867 24.42 88.1867 24.36 88.68 24.24C89.1733 24.1067 89.64 23.9067 90.08 23.64C90.3733 23.4667 90.6333 23.3933 90.86 23.42C91.1 23.4333 91.3 23.5133 91.46 23.66C91.62 23.8067 91.7267 23.9933 91.78 24.22C91.8333 24.4333 91.82 24.66 91.74 24.9C91.66 25.1267 91.5 25.3267 91.26 25.5C90.7267 25.8867 90.0867 26.1867 89.34 26.4C88.6067 26.6 87.86 26.7 87.1 26.7ZM95.1338 26.66C94.7338 26.66 94.4271 26.5533 94.2138 26.34C94.0004 26.1133 93.8938 25.7933 93.8938 25.38V13.5C93.8938 13.0867 94.0004 12.7733 94.2138 12.56C94.4271 12.3467 94.7338 12.24 95.1338 12.24C95.5338 12.24 95.8404 12.3467 96.0538 12.56C96.2804 12.7733 96.3938 13.0867 96.3938 13.5V18.68H96.1138C96.4071 17.9733 96.8604 17.44 97.4738 17.08C98.1004 16.7067 98.8071 16.52 99.5938 16.52C100.38 16.52 101.027 16.6667 101.534 16.96C102.04 17.2533 102.42 17.7 102.674 18.3C102.927 18.8867 103.054 19.6333 103.054 20.54V25.38C103.054 25.7933 102.947 26.1133 102.734 26.34C102.52 26.5533 102.214 26.66 101.814 26.66C101.414 26.66 101.1 26.5533 100.874 26.34C100.66 26.1133 100.554 25.7933 100.554 25.38V20.66C100.554 19.9 100.407 19.3467 100.114 19C99.8338 18.6533 99.3938 18.48 98.7938 18.48C98.0604 18.48 97.4738 18.7133 97.0338 19.18C96.6071 19.6333 96.3938 20.24 96.3938 21V25.38C96.3938 26.2333 95.9738 26.66 95.1338 26.66ZM108.813 26.7C108.106 26.7 107.473 26.5667 106.913 26.3C106.366 26.02 105.933 25.6467 105.613 25.18C105.306 24.7133 105.153 24.1867 105.153 23.6C105.153 22.88 105.34 22.3133 105.713 21.9C106.086 21.4733 106.693 21.1667 107.533 20.98C108.373 20.7933 109.5 20.7 110.913 20.7H111.913V22.14H110.933C110.106 22.14 109.446 22.18 108.953 22.26C108.46 22.34 108.106 22.48 107.893 22.68C107.693 22.8667 107.593 23.1333 107.593 23.48C107.593 23.92 107.746 24.28 108.053 24.56C108.36 24.84 108.786 24.98 109.333 24.98C109.773 24.98 110.16 24.88 110.493 24.68C110.84 24.4667 111.113 24.18 111.313 23.82C111.513 23.46 111.613 23.0467 111.613 22.58V20.28C111.613 19.6133 111.466 19.1333 111.173 18.84C110.88 18.5467 110.386 18.4 109.693 18.4C109.306 18.4 108.886 18.4467 108.433 18.54C107.993 18.6333 107.526 18.7933 107.033 19.02C106.78 19.14 106.553 19.1733 106.353 19.12C106.166 19.0667 106.02 18.96 105.913 18.8C105.806 18.6267 105.753 18.44 105.753 18.24C105.753 18.04 105.806 17.8467 105.913 17.66C106.02 17.46 106.2 17.3133 106.453 17.22C107.066 16.9667 107.653 16.7867 108.213 16.68C108.786 16.5733 109.306 16.52 109.773 16.52C110.733 16.52 111.52 16.6667 112.133 16.96C112.76 17.2533 113.226 17.7 113.533 18.3C113.84 18.8867 113.993 19.6467 113.993 20.58V25.38C113.993 25.7933 113.893 26.1133 113.693 26.34C113.493 26.5533 113.206 26.66 112.833 26.66C112.46 26.66 112.166 26.5533 111.953 26.34C111.753 26.1133 111.653 25.7933 111.653 25.38V24.42H111.813C111.72 24.8867 111.533 25.2933 111.253 25.64C110.986 25.9733 110.646 26.2333 110.233 26.42C109.82 26.6067 109.346 26.7 108.813 26.7ZM117.77 26.66C117.37 26.66 117.064 26.5533 116.85 26.34C116.637 26.1133 116.53 25.7933 116.53 25.38V17.82C116.53 17.4067 116.637 17.0933 116.85 16.88C117.064 16.6667 117.364 16.56 117.75 16.56C118.137 16.56 118.437 16.6667 118.65 16.88C118.864 17.0933 118.97 17.4067 118.97 17.82V19.18L118.75 18.68C119.044 17.9733 119.497 17.44 120.11 17.08C120.737 16.7067 121.444 16.52 122.23 16.52C123.017 16.52 123.664 16.6667 124.17 16.96C124.677 17.2533 125.057 17.7 125.31 18.3C125.564 18.8867 125.69 19.6333 125.69 20.54V25.38C125.69 25.7933 125.584 26.1133 125.37 26.34C125.157 26.5533 124.85 26.66 124.45 26.66C124.05 26.66 123.737 26.5533 123.51 26.34C123.297 26.1133 123.19 25.7933 123.19 25.38V20.66C123.19 19.9 123.044 19.3467 122.75 19C122.47 18.6533 122.03 18.48 121.43 18.48C120.697 18.48 120.11 18.7133 119.67 19.18C119.244 19.6333 119.03 20.24 119.03 21V25.38C119.03 26.2333 118.61 26.66 117.77 26.66ZM129.47 26.66C129.07 26.66 128.763 26.5533 128.55 26.34C128.336 26.1133 128.23 25.7933 128.23 25.38V17.82C128.23 17.4067 128.336 17.0933 128.55 16.88C128.763 16.6667 129.063 16.56 129.45 16.56C129.836 16.56 130.136 16.6667 130.35 16.88C130.563 17.0933 130.67 17.4067 130.67 17.82V19.18L130.45 18.68C130.743 17.9733 131.196 17.44 131.81 17.08C132.436 16.7067 133.143 16.52 133.93 16.52C134.716 16.52 135.363 16.6667 135.87 16.96C136.376 17.2533 136.756 17.7 137.01 18.3C137.263 18.8867 137.39 19.6333 137.39 20.54V25.38C137.39 25.7933 137.283 26.1133 137.07 26.34C136.856 26.5533 136.55 26.66 136.15 26.66C135.75 26.66 135.436 26.5533 135.21 26.34C134.996 26.1133 134.89 25.7933 134.89 25.38V20.66C134.89 19.9 134.743 19.3467 134.45 19C134.17 18.6533 133.73 18.48 133.13 18.48C132.396 18.48 131.81 18.7133 131.37 19.18C130.943 19.6333 130.73 20.24 130.73 21V25.38C130.73 26.2333 130.31 26.66 129.47 26.66ZM144.749 26.7C143.642 26.7 142.689 26.4933 141.889 26.08C141.089 25.6667 140.469 25.08 140.029 24.32C139.602 23.56 139.389 22.66 139.389 21.62C139.389 20.6067 139.596 19.72 140.009 18.96C140.436 18.2 141.016 17.6067 141.749 17.18C142.496 16.74 143.342 16.52 144.289 16.52C144.982 16.52 145.602 16.6333 146.149 16.86C146.709 17.0867 147.182 17.4133 147.569 17.84C147.969 18.2667 148.269 18.7867 148.469 19.4C148.682 20 148.789 20.68 148.789 21.44C148.789 21.68 148.702 21.8667 148.529 22C148.369 22.12 148.136 22.18 147.829 22.18H141.409V20.74H147.029L146.709 21.04C146.709 20.4267 146.616 19.9133 146.429 19.5C146.256 19.0867 145.996 18.7733 145.649 18.56C145.316 18.3333 144.896 18.22 144.389 18.22C143.829 18.22 143.349 18.3533 142.949 18.62C142.562 18.8733 142.262 19.24 142.049 19.72C141.849 20.1867 141.749 20.7467 141.749 21.4V21.54C141.749 22.6333 142.002 23.4533 142.509 24C143.029 24.5333 143.789 24.8 144.789 24.8C145.136 24.8 145.522 24.76 145.949 24.68C146.389 24.5867 146.802 24.4333 147.189 24.22C147.469 24.06 147.716 23.9933 147.929 24.02C148.142 24.0333 148.309 24.1067 148.429 24.24C148.562 24.3733 148.642 24.54 148.669 24.74C148.696 24.9267 148.656 25.12 148.549 25.32C148.456 25.52 148.289 25.6933 148.049 25.84C147.582 26.1333 147.042 26.3533 146.429 26.5C145.829 26.6333 145.269 26.7 144.749 26.7ZM154.109 26.7C153.002 26.7 152.169 26.3867 151.609 25.76C151.049 25.12 150.769 24.1867 150.769 22.96V13.5C150.769 13.0867 150.875 12.7733 151.089 12.56C151.302 12.3467 151.609 12.24 152.009 12.24C152.409 12.24 152.715 12.3467 152.929 12.56C153.155 12.7733 153.269 13.0867 153.269 13.5V22.84C153.269 23.4533 153.395 23.9067 153.649 24.2C153.915 24.4933 154.289 24.64 154.769 24.64C154.875 24.64 154.975 24.64 155.069 24.64C155.162 24.6267 155.255 24.6133 155.349 24.6C155.535 24.5733 155.662 24.6267 155.729 24.76C155.795 24.88 155.829 25.1333 155.829 25.52C155.829 25.8533 155.762 26.1133 155.629 26.3C155.495 26.4867 155.275 26.6 154.969 26.64C154.835 26.6533 154.695 26.6667 154.549 26.68C154.402 26.6933 154.255 26.7 154.109 26.7ZM160.638 26.7C160.064 26.7 159.458 26.64 158.818 26.52C158.178 26.4 157.604 26.1933 157.098 25.9C156.884 25.7667 156.731 25.6133 156.638 25.44C156.558 25.2533 156.524 25.0733 156.538 24.9C156.564 24.7133 156.631 24.5533 156.738 24.42C156.858 24.2867 157.004 24.2 157.178 24.16C157.364 24.12 157.564 24.1533 157.778 24.26C158.311 24.5133 158.811 24.6933 159.278 24.8C159.744 24.8933 160.204 24.94 160.658 24.94C161.298 24.94 161.771 24.8333 162.078 24.62C162.398 24.3933 162.558 24.1 162.558 23.74C162.558 23.4333 162.451 23.2 162.238 23.04C162.038 22.8667 161.731 22.74 161.318 22.66L159.318 22.28C158.491 22.12 157.858 21.82 157.418 21.38C156.991 20.9267 156.778 20.3467 156.778 19.64C156.778 19 156.951 18.4467 157.298 17.98C157.658 17.5133 158.151 17.1533 158.778 16.9C159.404 16.6467 160.124 16.52 160.938 16.52C161.524 16.52 162.071 16.5867 162.578 16.72C163.098 16.84 163.598 17.0333 164.078 17.3C164.278 17.4067 164.411 17.5467 164.478 17.72C164.558 17.8933 164.578 18.0733 164.538 18.26C164.498 18.4333 164.418 18.5933 164.298 18.74C164.178 18.8733 164.024 18.96 163.838 19C163.664 19.0267 163.464 18.9867 163.238 18.88C162.824 18.6667 162.424 18.5133 162.038 18.42C161.664 18.3267 161.304 18.28 160.958 18.28C160.304 18.28 159.818 18.3933 159.498 18.62C159.191 18.8467 159.038 19.1467 159.038 19.52C159.038 19.8 159.131 20.0333 159.318 20.22C159.504 20.4067 159.791 20.5333 160.178 20.6L162.178 20.98C163.044 21.14 163.698 21.4333 164.138 21.86C164.591 22.2867 164.818 22.86 164.818 23.58C164.818 24.5533 164.438 25.32 163.678 25.88C162.918 26.4267 161.904 26.7 160.638 26.7Z" fill="black"/>
</svg>
