<svg width="23" height="20" viewBox="0 0 23 20" fill="none" xmlns="http://www.w3.org/2000/svg">
<path d="M2.5 19.2813C2.08333 19.4479 1.6875 19.4113 1.3125 19.1713C0.9375 18.9321 0.75 18.5833 0.75 18.125V13.4688C0.75 13.1771 0.833333 12.9167 1 12.6875C1.16667 12.4583 1.39583 12.3125 1.6875 12.25L10.75 10L1.6875 7.75001C1.39583 7.68751 1.16667 7.54168 1 7.31251C0.833333 7.08334 0.75 6.82293 0.75 6.53126V1.87501C0.75 1.41668 0.9375 1.06751 1.3125 0.827509C1.6875 0.588342 2.08333 0.552091 2.5 0.718758L21.75 8.84376C22.2708 9.07292 22.5312 9.45834 22.5312 10C22.5312 10.5417 22.2708 10.9271 21.75 11.1563L2.5 19.2813Z" fill="#444DF2"/>
</svg>
